<?xml version="1.0" encoding="utf-8"?>
<!-- Generator: Adobe Illustrator 16.0.0, SVG Export Plug-In . SVG Version: 6.00 Build 0)  -->
<!DOCTYPE svg PUBLIC "-//W3C//DTD SVG 1.1//EN" "http://www.w3.org/Graphics/SVG/1.1/DTD/svg11.dtd">
<svg version="1.1" id="圖層_1" xmlns="http://www.w3.org/2000/svg" xmlns:xlink="http://www.w3.org/1999/xlink" x="0px" y="0px"
	 width="875px" height="1000px" viewBox="0 0 875 1000" enable-background="new 0 0 875 1000" xml:space="preserve">
<path fill="#EA4F39" d="M0,281.296v-68.354c1.302-24.738,11.067-45.57,29.295-62.496s39.711-25.389,64.449-25.389h93.744V93.808
	c0-26.04,9.114-48.175,27.342-66.402s40.362-27.342,66.402-27.342h312.48c26.04,0,48.174,9.114,66.402,27.342
	c18.228,18.228,27.342,40.362,27.342,66.402v31.248H781.2c24.738,0,46.221,8.463,64.449,25.389
	c18.228,16.926,27.992,37.758,29.295,62.496v68.354c0,16.927-6.185,31.574-18.554,43.943
	c-12.368,12.369-27.016,18.554-43.942,18.553v531.217c0,35.153-12.044,64.774-36.13,88.861
	c-24.087,24.088-53.708,36.131-88.862,36.13H187.488c-35.154,0-64.774-12.043-88.862-36.13
	c-24.087-24.086-36.131-53.707-36.13-88.861V343.792c-16.926,0-31.574-6.184-43.943-18.553C6.184,312.871,0,298.222,0,281.296z
	 M62.496,281.296h749.952V218.8c0-9.113-2.93-16.601-8.789-22.46s-13.346-8.788-22.46-8.788H93.743
	c-9.114-0.001-16.601,2.929-22.46,8.788c-5.859,5.859-8.789,13.347-8.789,22.46v62.496H62.496z M124.992,875.009
	c0,16.926,6.184,31.573,18.553,43.942s27.017,18.554,43.943,18.553h499.968c16.926,0,31.573-6.184,43.943-18.553
	c12.369-12.368,18.553-27.016,18.553-43.942V343.792h-624.96V875.009L124.992,875.009z M187.488,843.76V437.536
	c0-9.113,2.93-16.601,8.789-22.46s13.346-8.789,22.46-8.789h62.496c9.114,0,16.601,2.93,22.46,8.789
	c5.859,5.859,8.789,13.347,8.789,22.46V843.76c0,9.113-2.93,16.601-8.789,22.46c-5.86,5.859-13.346,8.789-22.46,8.789h-62.496
	c-9.114,0-16.601-2.93-22.46-8.789S187.488,852.874,187.488,843.76L187.488,843.76z M218.736,843.76h62.496V437.536h-62.496V843.76z
	 M249.984,125.056H624.96V93.808c0-9.114-2.93-16.601-8.789-22.46s-13.346-8.789-22.46-8.789h-312.48
	c-9.114,0-16.601,2.93-22.46,8.789s-8.789,13.346-8.789,22.46v31.248H249.984z M374.976,843.76V437.536
	c0-9.113,2.93-16.601,8.789-22.46s13.347-8.789,22.46-8.789h62.496c9.114,0,16.601,2.93,22.46,8.789s8.789,13.347,8.789,22.46
	V843.76c0,9.113-2.93,16.601-8.789,22.46s-13.346,8.789-22.46,8.789h-62.496c-9.113,0-16.601-2.93-22.46-8.789
	S374.976,852.874,374.976,843.76z M406.224,843.76h62.496V437.536h-62.496V843.76z M562.464,843.76V437.536
	c0-9.113,2.93-16.601,8.789-22.46s13.346-8.789,22.46-8.789h62.496c9.114,0,16.601,2.93,22.46,8.789s8.789,13.347,8.789,22.46
	V843.76c0,9.113-2.93,16.601-8.789,22.46s-13.346,8.789-22.46,8.789h-62.496c-9.114,0-16.601-2.93-22.46-8.789
	S562.464,852.874,562.464,843.76z M593.712,843.76h62.496V437.536h-62.496V843.76z"/>
</svg>
